<svg xmlns="http://www.w3.org/2000/svg" width="76" height="13" viewBox="0 0 76 13">
  <metadata><?xpacket begin="﻿" id="W5M0MpCehiHzreSzNTczkc9d"?>
<x:xmpmeta xmlns:x="adobe:ns:meta/" x:xmptk="Adobe XMP Core 5.6-c138 79.159824, 2016/09/14-01:09:01        ">
   <rdf:RDF xmlns:rdf="http://www.w3.org/1999/02/22-rdf-syntax-ns#">
      <rdf:Description rdf:about=""/>
   </rdf:RDF>
</x:xmpmeta>
                                                                                                    
                                                                                                    
                                                                                                    
                                                                                                    
                                                                                                    
                                                                                                    
                                                                                                    
                                                                                                    
                                                                                                    
                                                                                                    
                                                                                                    
                                                                                                    
                                                                                                    
                                                                                                    
                                                                                                    
                                                                                                    
                                                                                                    
                                                                                                    
                                                                                                    
                                                                                                    
                           
<?xpacket end="w"?></metadata>
<defs>
    <style>
      .cls-1 {
        fill: #f7cd07;
        fill-rule: evenodd;
      }
    </style>
  </defs>
  <path id="Forma_1_copy_5" data-name="Forma 1 copy 5" class="cls-1" d="M689.314,1690.04a0.417,0.417,0,0,0-.448-0.38l-4.017-.6-1.8-3.72a0.4,0.4,0,0,0-.784,0l-1.8,3.72-4.017.6a0.418,0.418,0,0,0-.448.38,0.642,0.642,0,0,0,.2.39l2.913,2.9-0.688,4.09a1.475,1.475,0,0,0-.016.17,0.5,0.5,0,0,0,.084.29,0.287,0.287,0,0,0,.252.12,0.625,0.625,0,0,0,.32-0.1l3.593-1.93,3.592,1.93a0.6,0.6,0,0,0,.32.1,0.281,0.281,0,0,0,.245-0.12,0.5,0.5,0,0,0,.084-0.29,1.255,1.255,0,0,0-.009-0.17l-0.688-4.09,2.9-2.9A0.586,0.586,0,0,0,689.314,1690.04Zm15.533,0a0.418,0.418,0,0,0-.449-0.38l-4.016-.6-1.8-3.72a0.4,0.4,0,0,0-.785,0l-1.8,3.72-4.017.6a0.418,0.418,0,0,0-.448.38,0.642,0.642,0,0,0,.2.39l2.913,2.9-0.688,4.09a1.475,1.475,0,0,0-.016.17,0.5,0.5,0,0,0,.084.29,0.287,0.287,0,0,0,.252.12,0.628,0.628,0,0,0,.32-0.1l3.592-1.93,3.593,1.93a0.6,0.6,0,0,0,.32.1,0.279,0.279,0,0,0,.244-0.12,0.5,0.5,0,0,0,.084-0.29,1.283,1.283,0,0,0-.008-0.17l-0.688-4.09,2.9-2.9A0.586,0.586,0,0,0,704.847,1690.04Zm16.087,0a0.417,0.417,0,0,0-.448-0.38l-4.017-.6-1.8-3.72a0.4,0.4,0,0,0-.784,0l-1.8,3.72-4.017.6a0.417,0.417,0,0,0-.448.38,0.642,0.642,0,0,0,.2.39l2.912,2.9-0.688,4.09c-0.01.08-.016,0.14-0.016,0.17a0.5,0.5,0,0,0,.084.29,0.287,0.287,0,0,0,.252.12,0.625,0.625,0,0,0,.32-0.1l3.593-1.93,3.593,1.93a0.6,0.6,0,0,0,.32.1,0.279,0.279,0,0,0,.244-0.12,0.5,0.5,0,0,0,.084-0.29,1.483,1.483,0,0,0-.008-0.17l-0.688-4.09,2.9-2.9A0.586,0.586,0,0,0,720.934,1690.04Zm15.533,0a0.417,0.417,0,0,0-.448-0.38l-4.017-.6-1.8-3.72a0.4,0.4,0,0,0-.784,0l-1.8,3.72-4.017.6a0.417,0.417,0,0,0-.448.38,0.637,0.637,0,0,0,.2.39l2.912,2.9-0.688,4.09c-0.01.08-.016,0.14-0.016,0.17a0.5,0.5,0,0,0,.084.29,0.287,0.287,0,0,0,.252.12,0.625,0.625,0,0,0,.32-0.1l3.593-1.93,3.593,1.93a0.6,0.6,0,0,0,.32.1,0.279,0.279,0,0,0,.244-0.12,0.5,0.5,0,0,0,.084-0.29,1.483,1.483,0,0,0-.008-0.17l-0.688-4.09,2.9-2.9A0.586,0.586,0,0,0,736.467,1690.04Zm15.533,0a0.417,0.417,0,0,0-.448-0.38l-4.017-.6-1.8-3.72a0.4,0.4,0,0,0-.784,0l-1.8,3.72-4.017.6a0.418,0.418,0,0,0-.448.38,0.639,0.639,0,0,0,.2.39l2.912,2.9-0.688,4.09a1.475,1.475,0,0,0-.016.17,0.5,0.5,0,0,0,.084.29,0.287,0.287,0,0,0,.252.12,0.625,0.625,0,0,0,.32-0.1l3.593-1.93,3.593,1.93a0.6,0.6,0,0,0,.32.1,0.28,0.28,0,0,0,.244-0.12,0.5,0.5,0,0,0,.084-0.29,1.483,1.483,0,0,0-.008-0.17l-0.689-4.09,2.905-2.9A0.586,0.586,0,0,0,752,1690.04Z" transform="translate(-676 -1685)"/>
</svg>
